<svg data-v-423bf9ae="" xmlns="http://www.w3.org/2000/svg" viewBox="0 0 278.874052741104 168" class="iconAbove"><!----><!----><!----><g data-v-423bf9ae="" id="f14f64e2-66a1-4c76-83ef-6d4dc5572c77" fill="#FFFFFF" transform="matrix(5.725191089769513,0,0,5.725191089769513,-4.00763386246237,86.26246707352306)"><path d="M0.95 14Q0.84 14 0.77 13.93Q0.70 13.86 0.70 13.75L0.70 13.75L0.70 4.45Q0.70 4.34 0.77 4.27Q0.84 4.20 0.95 4.20L0.95 4.20L2.76 4.20Q2.95 4.20 3.05 4.37L3.05 4.37L4.91 7.38Q4.98 7.48 5.05 7.38L5.05 7.38L6.93 4.37Q7.03 4.20 7.22 4.20L7.22 4.20L9.03 4.20Q9.14 4.20 9.21 4.27Q9.28 4.34 9.28 4.45L9.28 4.45L9.28 13.75Q9.28 13.86 9.21 13.93Q9.14 14 9.03 14L9.03 14L7.21 14Q7.10 14 7.03 13.93Q6.96 13.86 6.96 13.75L6.96 13.75L6.96 8.27Q6.96 8.20 6.92 8.19Q6.87 8.18 6.85 8.25L6.85 8.25L5.71 10.09Q5.61 10.26 5.42 10.26L5.42 10.26L4.56 10.26Q4.37 10.26 4.27 10.09L4.27 10.09L3.14 8.25Q3.11 8.18 3.07 8.19Q3.02 8.20 3.02 8.27L3.02 8.27L3.02 13.75Q3.02 13.86 2.95 13.93Q2.88 14 2.77 14L2.77 14L0.95 14ZM14.21 12.14Q14.64 12.14 15.02 12.00Q15.39 11.87 15.64 11.65L15.64 11.65Q15.72 11.55 15.82 11.55L15.82 11.55Q15.90 11.55 15.99 11.65L15.99 11.65L16.86 12.68Q16.94 12.78 16.94 12.87L16.94 12.87Q16.94 12.96 16.86 13.05L16.86 13.05Q16.38 13.55 15.65 13.83Q14.92 14.11 14.10 14.11L14.10 14.11Q13.15 14.11 12.41 13.77Q11.68 13.43 11.20 12.81L11.20 12.81Q10.43 11.83 10.43 10.32L10.43 10.32Q10.43 9.65 10.58 9.06L10.58 9.06Q10.89 7.97 11.79 7.30Q12.68 6.64 13.89 6.64L13.89 6.64Q15.29 6.64 16.15 7.50Q17.01 8.37 17.28 9.93L17.28 9.93Q17.33 10.32 17.36 10.78L17.36 10.78Q17.36 11.03 17.11 11.03L17.11 11.03L12.88 11.03Q12.84 11.03 12.80 11.06Q12.77 11.09 12.78 11.14L12.78 11.14L12.87 11.42Q13.01 11.76 13.36 11.95Q13.71 12.14 14.21 12.14L14.21 12.14ZM13.85 8.64Q13.13 8.64 12.88 9.32L12.88 9.32Q12.82 9.46 12.81 9.53L12.81 9.53L12.81 9.56Q12.81 9.65 12.91 9.65L12.91 9.65L14.83 9.65Q14.88 9.65 14.90 9.61Q14.92 9.58 14.91 9.53L14.91 9.53L14.85 9.35Q14.74 9.02 14.49 8.83Q14.24 8.64 13.85 8.64L13.85 8.64ZM21.94 12.14Q22.37 12.14 22.74 12.00Q23.11 11.87 23.37 11.65L23.37 11.65Q23.45 11.55 23.55 11.55L23.55 11.55Q23.63 11.55 23.72 11.65L23.72 11.65L24.58 12.68Q24.67 12.78 24.67 12.87L24.67 12.87Q24.67 12.96 24.58 13.05L24.58 13.05Q24.11 13.55 23.38 13.83Q22.65 14.11 21.83 14.11L21.83 14.11Q20.87 14.11 20.14 13.77Q19.40 13.43 18.93 12.81L18.93 12.81Q18.16 11.83 18.16 10.32L18.16 10.32Q18.16 9.65 18.31 9.06L18.31 9.06Q18.62 7.97 19.52 7.30Q20.41 6.64 21.62 6.64L21.62 6.64Q23.02 6.64 23.88 7.50Q24.74 8.37 25.00 9.93L25.00 9.93Q25.06 10.32 25.09 10.78L25.09 10.78Q25.09 11.03 24.84 11.03L24.84 11.03L20.61 11.03Q20.57 11.03 20.53 11.06Q20.50 11.09 20.51 11.14L20.51 11.14L20.59 11.42Q20.73 11.76 21.08 11.95Q21.43 12.14 21.94 12.14L21.94 12.14ZM21.57 8.64Q20.86 8.64 20.61 9.32L20.61 9.32Q20.55 9.46 20.54 9.53L20.54 9.53L20.54 9.56Q20.54 9.65 20.64 9.65L20.64 9.65L22.55 9.65Q22.61 9.65 22.63 9.61Q22.65 9.58 22.64 9.53L22.64 9.53L22.58 9.35Q22.47 9.02 22.22 8.83Q21.97 8.64 21.57 8.64L21.57 8.64ZM30.31 8.37Q30.31 8.48 30.24 8.55Q30.17 8.62 30.06 8.62L30.06 8.62L28.90 8.62Q28.80 8.62 28.80 8.72L28.80 8.72L28.80 11.17Q28.80 11.97 29.44 11.97L29.44 11.97L29.88 11.97Q29.99 11.97 30.06 12.04Q30.13 12.11 30.13 12.22L30.13 12.22L30.13 13.69Q30.13 13.92 29.89 13.94L29.89 13.94Q29.25 13.97 28.98 13.97L28.98 13.97Q27.76 13.97 27.17 13.58Q26.59 13.19 26.57 12.12L26.57 12.12L26.57 8.72Q26.57 8.62 26.47 8.62L26.47 8.62L25.79 8.62Q25.68 8.62 25.61 8.55Q25.54 8.48 25.54 8.37L25.54 8.37L25.54 7.01Q25.54 6.90 25.61 6.83Q25.68 6.76 25.79 6.76L25.79 6.76L26.47 6.76Q26.57 6.76 26.57 6.66L26.57 6.66L26.57 5.08Q26.57 4.97 26.64 4.90Q26.71 4.83 26.82 4.83L26.82 4.83L28.55 4.83Q28.66 4.83 28.73 4.90Q28.80 4.97 28.80 5.08L28.80 5.08L28.80 6.66Q28.80 6.76 28.90 6.76L28.90 6.76L30.06 6.76Q30.17 6.76 30.24 6.83Q30.31 6.90 30.31 7.01L30.31 7.01L30.31 8.37ZM33.39 14Q33.17 14 33.10 13.79L33.10 13.79L30.95 7.04Q30.94 7.01 30.94 6.94L30.94 6.94Q30.94 6.76 31.16 6.76L31.16 6.76L33.17 6.76Q33.28 6.76 33.36 6.83Q33.43 6.89 33.45 6.99L33.45 6.99L34.36 10.71Q34.38 10.77 34.42 10.77Q34.45 10.77 34.47 10.71L34.47 10.71L35.36 6.99Q35.38 6.89 35.46 6.83Q35.53 6.76 35.64 6.76L35.64 6.76L37.66 6.78Q37.80 6.78 37.86 6.85Q37.91 6.92 37.87 7.06L37.87 7.06L35.74 13.79Q35.69 14 35.45 14L35.45 14L33.39 14ZM40.03 6.29Q39.41 6.29 39.03 5.91Q38.65 5.54 38.65 4.94L38.65 4.94Q38.65 4.35 39.03 3.99Q39.41 3.63 40.03 3.63L40.03 3.63Q40.64 3.63 41.02 3.99Q41.40 4.35 41.40 4.94L41.40 4.94Q41.40 5.54 41.02 5.91Q40.64 6.29 40.03 6.29L40.03 6.29ZM39.12 14Q39.00 14 38.93 13.93Q38.86 13.86 38.86 13.75L38.86 13.75L38.86 7.01Q38.86 6.90 38.93 6.83Q39.00 6.76 39.12 6.76L39.12 6.76L40.94 6.76Q41.05 6.76 41.12 6.83Q41.19 6.90 41.19 7.01L41.19 7.01L41.19 13.75Q41.19 13.86 41.12 13.93Q41.05 14 40.94 14L40.94 14L39.12 14ZM42.39 14Q42.17 14 42.17 13.85L42.17 13.85Q42.17 13.80 42.22 13.69L42.22 13.69L44.39 10.44Q44.44 10.37 44.39 10.30L44.39 10.30L42.24 7.07Q42.18 7 42.18 6.92L42.18 6.92Q42.18 6.76 42.39 6.76L42.39 6.76L44.34 6.76Q44.55 6.76 44.65 6.93L44.65 6.93L45.64 8.50Q45.71 8.60 45.78 8.50L45.78 8.50L46.79 6.93Q46.90 6.76 47.10 6.76L47.10 6.76L49.18 6.76Q49.39 6.76 49.39 6.92L49.39 6.92Q49.39 7 49.34 7.07L49.34 7.07L47.18 10.30Q47.15 10.37 47.18 10.44L47.18 10.44L49.35 13.69Q49.41 13.80 49.41 13.85L49.41 13.85Q49.41 14 49.18 14L49.18 14L47.24 14Q47.03 14 46.93 13.83L46.93 13.83L45.93 12.26Q45.86 12.17 45.79 12.26L45.79 12.26L44.79 13.83Q44.69 14 44.48 14L44.48 14L42.39 14Z"></path></g><!----><g data-v-423bf9ae="" id="819b843b-a0a2-4a71-b40a-68e4934e9ab6" transform="matrix(1.0222247653537326,0,0,1.0222247653537326,92.97746658285419,0.9775438093877824)" stroke="none" fill="#39C643"><path d="M30.545 27.29C23.096 14.358 24.361 0 46.37 0c23.021 0 42.107 16.794 45.565 38.737.899 5.739-7.759 7.11-8.658 1.344C80.466 22.308 65.006 8.732 46.37 8.732c-9.866 0-15.01 4.843-8.432 14.667l.421-.223 9.079-4.815-1.855 26.394L21.41 32.132l9.107-4.815.028-.027m7.674 42.04c-19.395 35.855-62.121-26.114-20.857-59.309 4.525-3.667 10.035 3.134 5.509 6.773-28.221 22.699-5.509 71.933 7.702 48.142l-8.826-5.039L45.19 47.471l2.08 27.093-8.911-5.122-.14-.112m32.353-8.677L48.563 45.875 71.612 31.32l-.366 10.244v.168c14.729.224 26.198 8.538 15.32 27.318-11.497 19.845-35.642 27.878-56.471 19.901-5.453-2.099-2.305-10.244 3.149-8.145 33.983 13.043 65.549-31.573 37.721-30.704l-.028.307"></path></g><!----></svg>