<svg data-v-423bf9ae="" xmlns="http://www.w3.org/2000/svg" viewBox="0 0 NaN NaN" class="iconAbove"><!----><!----><!----><g data-v-423bf9ae="" id="3f67cf99-1968-412a-a202-8ffda036fa6e" fill="#FFFFFF" transform="matrix(Infinity,0,0,Infinity,0,0)"><path d=""></path></g><!----><g data-v-423bf9ae="" id="5f1c01c1-e230-4fd9-839e-0410df585ede" transform="matrix(1.0222247653537326,0,0,1.0222247653537326,-1.0223426822825203,0.9775438093877824)" stroke="none" fill="#39C643"><path d="M30.545 27.29C23.096 14.358 24.361 0 46.37 0c23.021 0 42.107 16.794 45.565 38.737.899 5.739-7.759 7.11-8.658 1.344C80.466 22.308 65.006 8.732 46.37 8.732c-9.866 0-15.01 4.843-8.432 14.667l.421-.223 9.079-4.815-1.855 26.394L21.41 32.132l9.107-4.815.028-.027m7.674 42.04c-19.395 35.855-62.121-26.114-20.857-59.309 4.525-3.667 10.035 3.134 5.509 6.773-28.221 22.699-5.509 71.933 7.702 48.142l-8.826-5.039L45.19 47.471l2.08 27.093-8.911-5.122-.14-.112m32.353-8.677L48.563 45.875 71.612 31.32l-.366 10.244v.168c14.729.224 26.198 8.538 15.32 27.318-11.497 19.845-35.642 27.878-56.471 19.901-5.453-2.099-2.305-10.244 3.149-8.145 33.983 13.043 65.549-31.573 37.721-30.704l-.028.307"></path></g><!----></svg>